<svg width="56" height="44" viewBox="0 0 56 44" fill="none" xmlns="http://www.w3.org/2000/svg">
<g id="Frame 1982248804">
<g id="Vector">
<path d="M46.8664 22.1698C46.8664 24.8669 48.8887 26.7137 51.4075 26.7137C53.9142 26.7137 55.9365 24.8669 55.9365 22.1698C55.9365 19.4605 53.9142 17.5894 51.4075 17.5894C48.8887 17.5894 46.8664 19.4605 46.8664 22.1698ZM47.8715 22.1698C47.8715 19.9829 49.4215 18.5128 51.4075 18.5128C53.4298 18.5128 54.9314 19.9829 54.9314 22.1698C54.9314 24.3081 53.4298 25.8025 51.4075 25.8025C49.4215 25.8025 47.8715 24.3081 47.8715 22.1698ZM50.6325 22.6922H51.3349L52.3521 24.4296H53.8052L52.6306 22.4978C53.1513 22.2913 53.5146 21.8903 53.5146 21.1614C53.5146 19.8978 52.5579 19.5698 51.2622 19.5698H49.3247V24.4296H50.6325V22.6922ZM52.2068 21.1614C52.2068 21.453 52.0251 21.6838 51.5892 21.6838H50.6325V20.5903H51.5892C52.0251 20.5903 52.2068 20.8819 52.2068 21.1614Z" fill="#131619"/>
<path d="M22.2081 1C21.4921 12.1722 11.9085 20.6451 0.802537 19.9248L0 32.4467C17.9806 33.6129 33.4965 19.8952 34.6557 1.80732L22.2081 1Z" fill="#131619"/>
<path d="M42.3284 27.0238H26.4594L20.777 43.2318H34.9482L42.3284 27.0238Z" fill="#131619"/>
</g>
</g>
</svg>
